<?xml version="1.0" encoding="UTF-8"?>
<svg xmlns="http://www.w3.org/2000/svg" xmlns:xlink="http://www.w3.org/1999/xlink" width="50px" height="50px" viewBox="0 0 50 50" version="1.1">
<g id="surface1">
<path style=" stroke:none;fill-rule:nonzero;fill:rgb(0%,0%,0%);fill-opacity:1;" d="M 22.3125 0.136719 C 17.726562 0.613281 12.925781 2.625 9.25 5.585938 C 8.136719 6.488281 6.039062 8.625 5.238281 9.6875 C 1.863281 14.101562 0 19.539062 0 24.960938 C 0 30.460938 1.851562 35.886719 5.238281 40.3125 C 6.039062 41.375 8.136719 43.511719 9.25 44.414062 C 11.226562 46 13.664062 47.414062 16.023438 48.324219 C 17.351562 48.835938 17.851562 48.863281 18.363281 48.425781 L 18.75 48.101562 L 18.75 42.851562 L 18.476562 42.9375 C 18.3125 42.976562 17.488281 43.050781 16.625 43.085938 C 13.273438 43.226562 11.488281 42.273438 10.261719 39.699219 C 9.5 38.125 8.699219 37.023438 7.914062 36.5 C 6.601562 35.613281 6.3125 35.113281 6.976562 34.863281 C 7.476562 34.664062 8.511719 34.8125 9.300781 35.199219 C 10.148438 35.613281 10.976562 36.414062 11.710938 37.511719 C 12.386719 38.550781 13.074219 39.175781 13.988281 39.613281 C 14.613281 39.898438 14.835938 39.9375 16.0625 39.9375 C 17.113281 39.925781 17.601562 39.875 18.113281 39.675781 L 18.773438 39.4375 L 19.0625 38.460938 C 19.3125 37.585938 20.050781 36.25 20.289062 36.25 C 20.335938 36.25 20.375 36.199219 20.375 36.148438 C 20.375 36.085938 19.886719 35.960938 19.289062 35.875 C 14.824219 35.210938 11.898438 33.351562 10.386719 30.226562 C 9.648438 28.6875 9.3125 27.351562 9.125 25.273438 C 8.863281 22.125 9.539062 19.523438 11.136719 17.613281 L 11.613281 17.039062 L 11.425781 16.425781 C 11 15 11.074219 12.664062 11.625 11.074219 L 11.835938 10.4375 L 12.5625 10.398438 C 13.789062 10.335938 15.988281 11.164062 17.863281 12.375 L 18.675781 12.898438 L 19.988281 12.636719 C 22.074219 12.238281 23.136719 12.125 25.039062 12.125 C 26.960938 12.125 27.8125 12.226562 29.949219 12.636719 L 31.335938 12.914062 L 31.898438 12.523438 C 33.6875 11.300781 36.199219 10.335938 37.449219 10.398438 L 38.1875 10.4375 L 38.488281 11.4375 C 38.75 12.289062 38.789062 12.699219 38.789062 14.125 C 38.789062 15.335938 38.738281 15.988281 38.585938 16.414062 L 38.386719 17.023438 L 38.9375 17.6875 C 39.636719 18.5625 40.3125 19.9375 40.636719 21.1875 C 40.835938 21.960938 40.898438 22.574219 40.898438 23.9375 C 40.898438 29.113281 39.039062 32.648438 35.3125 34.523438 C 34.351562 35.011719 32.449219 35.574219 30.976562 35.824219 L 29.648438 36.039062 L 30.125 36.738281 C 31.125 38.226562 31.25 39.039062 31.25 44.125 C 31.261719 48.261719 31.261719 48.300781 31.835938 48.601562 C 32.460938 48.9375 33.398438 48.6875 35.851562 47.5 C 38.414062 46.261719 40.261719 44.960938 42.363281 42.9375 C 46.585938 38.851562 49.136719 33.699219 49.8125 27.886719 C 50.574219 21.414062 48.773438 14.9375 44.761719 9.6875 C 43.960938 8.625 41.863281 6.488281 40.75 5.585938 C 35.601562 1.4375 28.898438 -0.550781 22.3125 0.136719 Z M 22.3125 0.136719 "/>
</g>
</svg>
